<?xml version="1.0" encoding="UTF-8"?>
<svg id="Layer_2" data-name="Layer 2" xmlns="http://www.w3.org/2000/svg" viewBox="0 0 316.36 62.24">
  <defs>
    <style>
      .cls-1 {
        fill: #3c150e;
      }

      .cls-2 {
        fill: #ee4826;
      }
    </style>
  </defs>
  <g id="Layer_1-2" data-name="Layer 1">
    <g>
      <path class="cls-2" d="M17.68,40.76c.39-.39.39-1.01,0-1.4l-3.07-3.07c-2.27-2.46-5.11-4.3-8.22-5.44-.68-.25-.86-1.11-.36-1.62l6.56-6.56c.51-.51,1.37-.32,1.62.36,1.15,3.12,2.96,5.97,5.33,8.34l3.07,3.07c.39.39,1.01.39,1.4,0l10.03-10.03c.39-.39.39-1.01,0-1.4l-3.07-3.07c-2.26-2.46-5.11-4.3-8.22-5.44-.68-.25-.86-1.11-.36-1.62l6.58-6.58c.51-.51,1.36-.32,1.62.35,1.17,3.1,2.99,5.96,5.36,8.32l3.07,3.07c.39.39,1.01.39,1.4,0l9.86-9.86c.39-.39.39-1.01,0-1.4l-.79-.79s-.08-.07-.13-.11C37.18-2.92,20.08-1.85,9.11,9.11-2.13,20.36-2.97,38.07,6.6,50.28c.37.47,1.06.51,1.48.09l9.61-9.61Z"/>
      <path class="cls-2" d="M56.24,12.77h0c-.39-.39-1.01-.39-1.4,0l-9.86,9.86c-.39.39-.39,1.01,0,1.4l2.28,2.28c2.37,2.37,5.21,4.16,8.33,5.35.67.25.85,1.11.35,1.62l-6.59,6.59c-.51.51-1.37.32-1.62-.35-1.17-3.14-2.97-5.96-5.44-8.23l-2.28-2.28c-.39-.39-1.01-.39-1.4,0l-10.03,10.03c-.39.39-.39,1.01,0,1.4l2.28,2.28c2.37,2.37,5.2,4.16,8.35,5.32.67.25.86,1.11.35,1.62l-6.57,6.57c-.51.51-1.37.32-1.62-.35-1.17-3.14-2.97-5.96-5.44-8.23l-2.28-2.28c-.39-.39-1.01-.39-1.4,0l-9.49,9.49c-.43.43-.37,1.14.12,1.5,12.17,8.82,29.27,7.75,40.24-3.22,10.96-10.96,12.04-28.07,3.22-40.23-.03-.04-.07-.09-.11-.13Z"/>
      <path class="cls-1" d="M146.29,48.73h-11.59c1.57-2.87,2.4-6.1,2.4-9.39v-4.16c0-3.28-.83-5.04-2.4-7.91l9.32-2.87v14.94c-.14,3.28.69,6.52,2.27,9.39Z"/>
      <path class="cls-1" d="M160.92,48.73h-11.59c1.57-2.87,2.4-6.1,2.4-9.39v-18.16c0-3.28-.83-5.04-2.4-7.91l9.32-2.87v28.94c-.14,3.28.69,6.52,2.27,9.39Z"/>
      <path class="cls-1" d="M147.29,48.73h-11.59c1.57-2.87,2.4-6.1,2.4-9.39v-18.16c0-3.28-.83-5.04-2.4-7.91l9.32-2.87v28.94c-.14,3.28.69,6.52,2.27,9.39Z"/>
      <path class="cls-1" d="M76.11,13.85h7.07v13.66h13.71v-13.66h7.07v34.88h-7.07v-15.37h-13.71v15.37h-7.07V13.85Z"/>
      <path class="cls-1" d="M193.94,31.41c0-10.34,6.44-18.24,16.73-18.24,8.59,0,13.66,5.12,14.39,11.76h-7.02c-.63-3.51-3.27-5.8-7.37-5.8-6.44,0-9.51,5.37-9.51,12.29s3.71,12.24,9.56,12.24c4.15,0,7.07-2.49,7.51-6.15h6.93c-.2,3.07-1.51,6.05-3.85,8.24-2.39,2.24-5.76,3.71-10.59,3.71-9.8,0-16.78-7.56-16.78-18.05Z"/>
      <path class="cls-1" d="M228.28,23.7h6.63v25.02h-6.63v-25.02Z"/>
      <path class="cls-1" d="M245.6,27.7h.15c1.51-2.83,3.22-4.29,6.15-4.29.73,0,1.17.05,1.56.2v5.8h-.15c-4.34-.44-7.46,1.85-7.46,7.12v12.19h-6.63v-25.02h6.39v4Z"/>
      <path class="cls-1" d="M254.38,36.24c0-7.46,4.88-13.22,12.49-13.22,6.49,0,10.49,3.76,11.37,9.17h-6.49c-.44-2.19-2.15-3.85-4.59-3.85-4,0-6.05,3.07-6.05,7.9s1.9,7.9,5.95,7.9c2.68,0,4.59-1.41,5.02-4.24h6.39c-.44,5.32-4.59,9.56-11.27,9.56-7.9,0-12.83-5.76-12.83-13.22Z"/>
      <path class="cls-1" d="M281.45,13.85h6.63v34.88h-6.63V13.85Z"/>
      <circle class="cls-1" cx="134.22" cy="22.74" r="2.82"/>
      <circle class="cls-1" cx="231.6" cy="17.42" r="3.58"/>
      <path class="cls-1" d="M126.33,38.11h6.74c.08-.61.12-1.23.12-1.87,0-7.46-5.32-13.22-13.07-13.22s-13.07,5.76-13.07,13.22,5.32,13.22,13.07,13.22c6,0,10.54-3.45,12.29-8.46h-6.9c-1.03,2.12-2.87,3.39-5.38,3.39-2.82,0-4.76-1.55-5.7-4.11,2.65-1.42,4.35-2.17,7.46-2.17h4.46ZM120.12,28.04c2.79,0,4.74,1.57,5.69,4.15h-11.39c.94-2.57,2.88-4.15,5.7-4.15Z"/>
      <path class="cls-1" d="M163.59,36.09c0-7.65,5.45-13.55,13.4-13.55s13.4,5.9,13.4,13.55-5.45,13.55-13.4,13.55-13.4-5.9-13.4-13.55ZM183.49,36.09c0-5-2.35-8.4-6.5-8.4s-6.5,3.4-6.5,8.4,2.3,8.35,6.5,8.35,6.5-3.35,6.5-8.35Z"/>
      <path class="cls-1" d="M291.06,36.01c0-7.6,5.15-13.5,12.65-13.5,8.25,0,12.65,6.3,12.65,15.45h-18.6c.5,3.95,2.7,6.4,6.55,6.4,2.65,0,4.2-1.2,4.95-3.15h6.7c-.95,4.55-5,8.4-11.6,8.4-8.5,0-13.3-5.95-13.3-13.6ZM297.86,33.26h11.4c-.2-3.25-2.35-5.5-5.45-5.5-3.6,0-5.35,2.15-5.95,5.5Z"/>
    </g>
  </g>
</svg>